<svg width="21" height="24" viewBox="0 0 21 24" fill="none" xmlns="http://www.w3.org/2000/svg">
<g clip-path="url(#clip0_1752_572)">
<path d="M15.6388 16.2893C14.4956 17.3333 12.9863 17.912 11.3299 17.912C7.67852 17.912 4.99708 15.188 4.99708 11.448C4.99708 7.708 7.59321 5.09867 11.3299 5.09867C12.9574 5.09867 14.4956 5.64933 15.6677 6.69333L16.4644 7.38933L20.0042 3.79467L19.1183 2.98267C17.0353 1.072 14.2699 0 11.3286 0C4.76608 0 0.000396729 4.81067 0.000396729 11.42C0.000396729 18.0013 4.88027 22.984 11.3286 22.984C14.325 22.984 17.1193 21.912 19.176 19.9707L20.0318 19.1587L16.4368 15.5667L15.6388 16.2893Z" fill="#F2F4F5"/>
<path d="M11.1562 7.65076C13.2526 7.65076 14.952 9.37715 14.952 11.5068C14.952 13.6364 13.2526 15.3628 11.1562 15.3628C9.0599 15.3628 7.36049 13.6364 7.36049 11.5068C7.36049 9.37715 9.0599 7.65076 11.1562 7.65076Z" fill="#F2F4F5"/>
</g>
<defs>
<clipPath id="clip0_1752_572">
<rect width="21" height="24" fill="white" transform="translate(0.000396729)"/>
</clipPath>
</defs>
</svg>
