<svg width="24" height="24" viewBox="0 0 24 24" fill="none" xmlns="http://www.w3.org/2000/svg">
<g clip-path="url(#clip0_1752_568)">
<path d="M21.6004 0H2.4004C1.0804 0 0.000396729 1.08 0.000396729 2.4V21.6C0.000396729 22.92 1.0804 24 2.4004 24H21.6004C22.9204 24 24.0004 22.92 24.0004 21.6V2.4C24.0004 1.08 22.9204 0 21.6004 0ZM7.2004 20.4H3.6004V9.6H7.2004V20.4ZM5.4004 7.56C4.2004 7.56 3.2404 6.6 3.2404 5.4C3.2404 4.2 4.2004 3.24 5.4004 3.24C6.6004 3.24 7.5604 4.2 7.5604 5.4C7.5604 6.6 6.6004 7.56 5.4004 7.56ZM20.4004 20.4H16.8004V14.04C16.8004 13.08 15.9604 12.24 15.0004 12.24C14.0404 12.24 13.2004 13.08 13.2004 14.04V20.4H9.6004V9.6H13.2004V11.04C13.8004 10.08 15.1204 9.36 16.2004 9.36C18.4804 9.36 20.4004 11.28 20.4004 13.56V20.4Z" fill="#F2F4F5"/>
</g>
<defs>
<clipPath id="clip0_1752_568">
<rect width="24" height="24" fill="white" transform="translate(0.000396729)"/>
</clipPath>
</defs>
</svg>
